
<svg id="Capa_2" data-name="Capa 2" xmlns="http://www.w3.org/2000/svg" viewBox="0 0 302.09 69.8">
  <defs>
    <style>
      .cls-1 {
        fill: #fff;
      }

      .cls-1, .cls-2 {
        stroke-width: 0px;
      }

      .cls-2 {
        fill: #4a5b72;
        fill-rule: evenodd;
      }
    </style>
  </defs>
  <g id="Capa_1-2" data-name="Capa 1">
    <g>
      <path class="cls-1" d="M86.81,36.07c0-15.07,11.32-19.21,17.96-19.21,9.21,0,12.8,5.31,13.27,6.01v-5.15h9.6l-.08,28.26h3.12v8.67h-2.03c-6.87,0-9.37-3.04-10.15-4.76,0,0-3.75,5.46-13.74,5.46-11.87,0-17.96-9.21-17.96-19.28ZM106.8,46.53h.55c6.87,0,10.77-3.75,10.77-10.31s-3.9-10.54-10.7-10.54h-.55c-6.79,0-10.7,3.75-10.7,10.38s3.83,10.46,10.62,10.46Z"/>
      <path class="cls-1" d="M135.99,62.69l7.96-4.45c2.03,2.34,4.92,3.75,8.04,3.83h.55c9.84,0,9.84-6.71,9.84-9.6v-3.12s-3.75,4.45-12.73,4.45c-2.11,0-20.22-.55-20.22-18.66,0-15.07,11.24-18.19,19.36-18.19,9.68,0,13.58,6.01,13.58,6.01v-5.23h9.21v35.84c0,10.46-6.79,16.24-19.13,16.24-6.25-.08-12.18-2.65-16.47-7.1ZM149.97,45.59h.47c6.87,0,10.77-3.75,10.77-10.31s-3.9-10.54-10.7-10.54h-.47c-6.87,0-10.77,3.75-10.77,10.31s3.9,10.54,10.7,10.54Z"/>
      <path class="cls-1" d="M171.8,54.65V.08h13.27c9.99,0,17.64,2.26,22.56,6.71,4.92,4.45,7.42,11.24,7.42,20.22s-2.5,16.08-7.5,20.69c-5,4.61-12.41,6.95-22.09,6.95h-13.66ZM185.31,45.75c12.88,0,19.75-6.01,19.75-18.58s-6.87-18.19-19.75-18.19h-2.97v36.77h2.97Z"/>
      <path class="cls-1" d="M219.66,50.04c-3.67-3.2-5.78-8.51-5.78-14.13s2.11-10.85,5.78-14.05c3.44-3.43,9.21-5.54,15.3-5.54s11.87,2.11,15.3,5.54c3.67,3.2,5.7,8.35,5.78,14.05,0,5.62-2.26,11.01-5.86,14.29-3.44,3.36-9.13,5.46-15.22,5.46s-11.87-2.19-15.3-5.62ZM234.65,46.92h.55c7.18,0,11.24-3.98,11.32-10.85,0-7.03-4.14-11.09-11.24-11.09h-.55c-7.18,0-11.32,3.98-11.32,10.85s4.06,11.09,11.24,11.09Z"/>
      <path class="cls-1" d="M256.43,3.12h9.6v51.53h-9.6V3.12Z"/>
      <path class="cls-1" d="M268.21,3.12h9.6v51.53h-9.6V3.12Z"/>
      <path class="cls-2" d="M222.39,32.78c-2.22,17.15,13.8,18.58,21.52,12.26,5.54-4.58,4.96-14.25-1.17-19.87-7.9-7.28-19.19-1.52-20.36,7.62h0ZM228.84,35.95c-.35,2.59,2.07,2.81,3.24,1.86.85-.7.76-2.16-.17-3.01-1.2-1.1-2.89-.22-3.06,1.15h0ZM237.91,33.54c-.35,2.59,2.07,2.81,3.24,1.86.85-.7.76-2.16-.17-3.01-1.2-1.1-2.89-.22-3.06,1.15h0Z"/>
      <path class="cls-1" d="M18.41,21.18h0c0,2.57,2.09,4.66,4.66,4.66s4.66-2.09,4.66-4.66v-.08h0c-1.43.61-3.01.96-4.67.96s-3.24-.35-4.68-.97h.02v.09Z"/>
      <path class="cls-1" d="M13.18,9.01c-.05.42-.08.85-.08,1.27,0,5.5,4.47,9.97,9.97,9.97s9.97-4.47,9.97-9.97c0-.41-.03-.83-.08-1.24-.32.02-.64.02-.97.02-5.26,0-9.61-2.02-10.23-4.63-.45,2.61-3.62,4.63-7.46,4.63-.38,0-.75-.02-1.13-.06ZM26.7,11.77c0-.4.32-.72.72-.72s.72.32.72.72v.56c0,.4-.32.72-.72.72s-.72-.32-.72-.72v-.56ZM20.39,15.05c.63,1.48,2.34,2.17,3.82,1.54.7-.29,1.25-.85,1.54-1.54.15-.37.57-.55.94-.4s.55.57.4.94c0,0,0,.01,0,.02-.68,1.61-2.26,2.66-4.01,2.66-1.75,0-3.33-1.04-4.01-2.66-.15-.37.03-.79.4-.94.36-.15.78.02.93.38ZM17.99,11.77c0-.4.32-.72.72-.72s.72.32.72.72v.56c0,.4-.32.72-.72.72s-.72-.32-.72-.72v-.56Z"/>
      <path class="cls-1" d="M81.66,40.13c-1.09,5.08-3.59,7.26-6.4,7.26-6.09,0-10.85-12.26-10.85-12.26,0,0,18.35,1.09,18.35-18.11,0-11.79-6.56-17.02-21.16-17.02H28.81c3.6,2.01,6.04,5.86,6.04,10.28,0,3.16-1.25,6.01-3.27,8.13l.04-.03,5.95,24.01c-9.67,3.87-19.33,3.87-29,0l5.95-24.01.04.03c-2.02-2.11-3.27-4.97-3.27-8.13,0-4.42,2.44-8.27,6.04-10.28H0v54.57h11.59c-.75-.87-1.17-2.02-1.07-3.25l.77-6.43c2.86.9,5.82,1.48,8.81,1.73l-.69,5.78c-.14.84-.51,1.58-1.03,2.18h9.23c-.47-.62-.79-1.36-.89-2.18l-.69-5.78c2.99-.24,5.95-.82,8.82-1.73l.77,6.43c.14,1.2-.21,2.35-.89,3.25h19.68v-18.97s7.18,20.14,20.84,20.14c9.45,0,14.52-9.29,14.52-15.61h-8.12ZM4.54,3.88c.53-.74,1.2-1.38,2.03-1.76,2.09-.95,4.35-.26,5.79.42-1.55,2.13-2.42,4.67-2.51,7.3-1.58.6-3.44.42-3.44.42C1.81,10.26.72,5.24.72,5.24c2.16.48,3.33-.67,3.82-1.36ZM2.75,31.06c-1.25-2.18-.57-4.95,1.54-6.31l8.43-5.12-3.22,12.98-.32.19c-2.26,1.3-5.14.52-6.43-1.74ZM43.43,31.22c-1.35,2.22-4.25,2.93-6.47,1.59,0,0,0,0,0,0l-.32-.19-3.22-12.98,8.43,5.12c2.22,1.35,2.93,4.25,1.58,6.47ZM39.72,10.26s-1.85.18-3.44-.42c-.09-2.63-.96-5.17-2.51-7.3,1.44-.68,3.7-1.37,5.79-.41.83.38,1.5,1.02,2.03,1.76.49.69,1.66,1.84,3.82,1.36,0,0-1.09,5.02-5.69,5.02ZM63.08,26.31h-.39c-5.78,0-9.06-3.28-9.06-8.9s3.36-8.74,9.14-8.74h.39c5.78,0,9.06,3.2,9.06,8.9s-3.28,8.74-9.13,8.74Z"/>
      <g>
        <path class="cls-1" d="M175.15,58.72h-2.93v-1.04h6.97v1.04h-2.92v8.97h-1.12v-8.97Z"/>
        <path class="cls-1" d="M178.66,63.74c0-2.43,1.6-4.11,3.94-4.11s3.95,1.74,3.79,4.31h-6.65c.04,1.84,1.16,2.94,2.94,2.94,1.26,0,2.07-.47,2.57-1.37l1,.22c-.68,1.37-1.85,2.1-3.58,2.1-2.43,0-4.01-1.63-4.01-4.11ZM185.35,63.03c-.1-1.52-1.12-2.49-2.74-2.49s-2.64.93-2.83,2.49h5.57Z"/>
        <path class="cls-1" d="M188.01,57.21h1.09v10.48h-1.09v-10.48Z"/>
        <path class="cls-1" d="M190.89,57.93c0-.39.29-.64.66-.64s.69.25.69.64-.32.64-.69.64-.66-.25-.66-.64ZM191.01,59.79h1.06v7.91h-1.06v-7.91Z"/>
        <path class="cls-1" d="M194.47,64.47v-3.8h-1.17v-.88h1.17v-1.48l1.11-.23v1.71h2.47v.88h-2.47v3.71c0,1.88.46,2.52,1.8,2.52.15,0,.32-.01.64-.07l.15.88c-.29.06-.66.1-.91.1-1.95,0-2.78-.9-2.78-3.33Z"/>
        <path class="cls-1" d="M198.54,63.74c0-2.78,1.77-4.11,3.72-4.11,1.34,0,2.53.66,3.03,1.98v-1.83h1.09v7.89h-1.09v-1.77c-.48,1.3-1.67,1.96-3.01,1.96-1.96,0-3.73-1.33-3.73-4.13ZM205.31,63.74c0-1.94-1.15-3.14-2.86-3.14s-2.83,1.19-2.83,3.14,1.13,3.17,2.86,3.17,2.83-1.22,2.83-3.17Z"/>
        <path class="cls-1" d="M211.98,63.74c0-2.39,1.6-4.11,3.86-4.11,1.84,0,3.03.86,3.61,2.52l-.95.23c-.47-1.19-1.34-1.78-2.63-1.78-1.65,0-2.81,1.29-2.81,3.14s1.16,3.14,2.81,3.14c1.23,0,2.17-.64,2.61-1.78l.95.24c-.52,1.59-1.81,2.52-3.59,2.52-2.25,0-3.86-1.71-3.86-4.11Z"/>
        <path class="cls-1" d="M220.51,63.74c0-2.85,1.94-4.11,3.91-4.11s3.94,1.26,3.94,4.11-1.94,4.13-3.91,4.13-3.94-1.26-3.94-4.13ZM227.28,63.74c0-1.94-1.15-3.14-2.86-3.14s-2.83,1.19-2.83,3.14,1.13,3.17,2.86,3.17,2.83-1.22,2.83-3.17Z"/>
        <path class="cls-1" d="M229.97,59.79h1.08v1.69c.36-1.08,1.27-1.82,2.71-1.82,2.24,0,3.29,1.31,3.29,3.82v4.23h-1.08v-4.16c0-1.96-.77-2.9-2.47-2.9s-2.45,1.15-2.45,3.14v3.93h-1.08v-7.91Z"/>
        <path class="cls-1" d="M242.64,59.79h1.08v1.69c.36-1.08,1.27-1.82,2.71-1.82,2.24,0,3.29,1.31,3.29,3.82v4.23h-1.08v-4.16c0-1.96-.77-2.9-2.47-2.9s-2.45,1.15-2.45,3.14v3.93h-1.08v-7.91Z"/>
        <path class="cls-1" d="M251.13,63.74c0-2.85,1.94-4.11,3.91-4.11s3.94,1.26,3.94,4.11-1.94,4.13-3.91,4.13-3.94-1.26-3.94-4.13ZM257.9,63.74c0-1.94-1.15-3.14-2.86-3.14s-2.83,1.19-2.83,3.14,1.13,3.17,2.86,3.17,2.83-1.22,2.83-3.17Z"/>
        <path class="cls-1" d="M259.83,65.85l.98-.32c.48.84,1.45,1.33,2.71,1.33,1.44,0,2.27-.53,2.27-1.41,0-2.07-5.53-.47-5.53-3.62,0-1.3,1.34-2.18,3.17-2.18,1.4,0,2.71.68,3.25,1.67l-.94.35c-.44-.66-1.3-1.08-2.29-1.08-1.3,0-2.1.48-2.1,1.27,0,2.07,5.54.44,5.54,3.58,0,1.45-1.31,2.39-3.36,2.39-1.71,0-3.12-.77-3.69-1.98Z"/>
        <path class="cls-1" d="M267.95,63.74c0-2.85,1.94-4.11,3.91-4.11s3.94,1.26,3.94,4.11-1.94,4.13-3.91,4.13-3.94-1.26-3.94-4.13ZM274.72,63.74c0-1.94-1.15-3.14-2.86-3.14s-2.83,1.19-2.83,3.14,1.13,3.17,2.86,3.17,2.83-1.22,2.83-3.17Z"/>
        <path class="cls-1" d="M277.39,64.47v-3.8h-1.17v-.88h1.17v-1.48l1.11-.23v1.71h2.47v.88h-2.47v3.71c0,1.88.46,2.52,1.8,2.52.15,0,.32-.01.64-.07l.15.88c-.29.06-.66.1-.91.1-1.95,0-2.78-.9-2.78-3.33Z"/>
        <path class="cls-1" d="M282.25,59.79h1.08v1.44c.33-.94,1.17-1.73,2.88-1.47l-.14,1.06c-1.92-.36-2.74.77-2.74,2.78v4.09h-1.08v-7.91Z"/>
        <path class="cls-1" d="M286.34,63.74c0-2.85,1.94-4.11,3.91-4.11s3.94,1.26,3.94,4.11-1.94,4.13-3.91,4.13-3.94-1.26-3.94-4.13ZM293.11,63.74c0-1.94-1.15-3.14-2.86-3.14s-2.83,1.19-2.83,3.14,1.13,3.17,2.86,3.17,2.83-1.22,2.83-3.17Z"/>
        <path class="cls-1" d="M295.04,65.85l.98-.32c.48.84,1.45,1.33,2.71,1.33,1.44,0,2.27-.53,2.27-1.41,0-2.07-5.53-.47-5.53-3.62,0-1.3,1.34-2.18,3.17-2.18,1.4,0,2.71.68,3.25,1.67l-.94.35c-.44-.66-1.3-1.08-2.29-1.08-1.3,0-2.1.48-2.1,1.27,0,2.07,5.54.44,5.54,3.58,0,1.45-1.31,2.39-3.36,2.39-1.71,0-3.12-.77-3.69-1.98Z"/>
      </g>
    </g>
  </g>
</svg>