<svg width="303" height="72" viewBox="0 0 303 72" fill="none" xmlns="http://www.w3.org/2000/svg">
<g clip-path="url(#clip0_91_65)">
<path d="M54.41 37.1V56.07H0V1.5H61.6C76.2 1.5 82.76 6.73 82.76 18.52C82.76 37.73 64.41 36.63 64.41 36.63C64.41 36.63 69.17 48.89 75.26 48.89C78.07 48.89 80.57 46.7 81.66 41.63H89.78C89.78 47.95 84.71 57.24 75.26 57.24C61.6 57.24 54.42 37.1 54.42 37.1H54.41ZM62.69 27.81H63.08C68.93 27.81 72.21 24.69 72.21 19.07C72.21 13.45 68.93 10.17 63.15 10.17H62.76C56.98 10.17 53.62 13.37 53.62 18.91C53.62 24.45 56.9 27.81 62.68 27.81H62.69Z" fill="#A8213C"/>
<path d="M86.81 37.56C86.81 22.49 98.13 18.35 104.77 18.35C113.98 18.35 117.57 23.66 118.04 24.36V19.21H127.64L127.56 47.47H130.68V56.14H128.65C121.78 56.14 119.28 53.1 118.5 51.38C118.5 51.38 114.75 56.84 104.76 56.84C92.89 56.84 86.8 47.63 86.8 37.56H86.81ZM106.8 48.03H107.35C114.22 48.03 118.12 44.28 118.12 37.72C118.12 31.16 114.22 27.18 107.42 27.18H106.87C100.08 27.18 96.17 30.93 96.17 37.56C96.17 44.19 100 48.02 106.79 48.02L106.8 48.03Z" fill="#A8213C"/>
<path d="M135.99 64.19L143.95 59.74C145.98 62.08 148.87 63.49 151.99 63.57H152.54C162.38 63.57 162.38 56.86 162.38 53.97V50.8499C162.38 50.8499 158.63 55.2999 149.65 55.2999C147.54 55.2999 129.43 54.75 129.43 36.6399C129.43 21.57 140.67 18.45 148.79 18.45C158.47 18.45 162.37 24.4599 162.37 24.4599V19.2299H171.58V55.07C171.58 65.53 164.79 71.3099 152.45 71.3099C146.2 71.2299 140.27 68.6599 135.98 64.2099L135.99 64.19ZM149.97 47.09H150.44C157.31 47.09 161.21 43.3399 161.21 36.7799C161.21 30.2199 157.31 26.24 150.51 26.24H150.04C143.17 26.24 139.27 29.9899 139.27 36.5499C139.27 43.1099 143.17 47.09 149.97 47.09Z" fill="#A8213C"/>
<path d="M171.8 56.1499V1.56995H185.07C195.06 1.56995 202.71 3.82995 207.63 8.27995C212.55 12.7299 215.05 19.5199 215.05 28.4999C215.05 37.4799 212.55 44.5799 207.55 49.1899C202.55 53.7999 195.14 56.1399 185.46 56.1399H171.8V56.1499ZM185.31 47.2499C198.19 47.2499 205.06 41.2399 205.06 28.6699C205.06 16.0999 198.19 10.4799 185.31 10.4799H182.34V47.2499H185.31Z" fill="#4A5B72"/>
<path d="M219.66 51.5399C215.99 48.3399 213.88 43.0299 213.88 37.4099C213.88 31.7899 215.99 26.5599 219.66 23.3599C223.1 19.9299 228.87 17.8199 234.96 17.8199C241.05 17.8199 246.83 19.9299 250.26 23.3599C253.93 26.5599 255.96 31.7099 256.04 37.4099C256.04 43.0299 253.78 48.4199 250.18 51.6999C246.74 55.0599 241.05 57.1599 234.96 57.1599C228.87 57.1599 223.09 54.9699 219.66 51.5399ZM234.65 48.4199H235.2C242.38 48.4199 246.44 44.4399 246.52 37.5699C246.52 30.5399 242.38 26.4799 235.28 26.4799H234.73C227.55 26.4799 223.41 30.4599 223.41 37.3299C223.41 44.1999 227.47 48.4199 234.65 48.4199Z" fill="#4A5B72"/>
<path d="M256.43 4.62H266.03V56.15H256.43V4.62Z" fill="#4A5B72"/>
<path d="M268.21 4.62H277.81V56.15H268.21V4.62Z" fill="#4A5B72"/>
<path fill-rule="evenodd" clip-rule="evenodd" d="M222.39 34.27C220.17 51.42 236.19 52.85 243.91 46.53C249.45 41.95 248.87 32.28 242.74 26.66C234.84 19.38 223.55 25.14 222.38 34.28L222.39 34.27ZM228.84 37.45C228.49 40.04 230.91 40.26 232.08 39.31C232.93 38.61 232.84 37.15 231.91 36.3C230.71 35.2 229.02 36.08 228.85 37.45H228.84ZM237.91 35.03C237.56 37.62 239.98 37.84 241.15 36.89C242 36.19 241.91 34.73 240.98 33.88C239.78 32.78 238.09 33.66 237.92 35.03H237.91Z" fill="#A8213C"/>
<path d="M27.7299 22.6V22.68C27.7299 25.25 25.6399 27.34 23.0699 27.34C20.4999 27.34 18.4099 25.25 18.4099 22.68V22.6L14.5199 19.88L8.56995 43.89C18.2399 47.76 27.8999 47.76 37.5699 43.89L31.6199 19.88L27.7299 22.6Z" fill="white"/>
<path d="M20.11 48.11L19.42 53.89C19.02 56.33 16.71 57.99 14.27 57.59C11.97 57.21 10.35 55.14 10.53 52.82L11.3 46.39C14.16 47.29 17.12 47.87 20.11 48.12V48.11Z" fill="white"/>
<path d="M31.1799 57.83C28.9099 57.83 26.9999 56.14 26.7299 53.89L26.0399 48.11C29.0299 47.87 31.9899 47.29 34.8599 46.38L35.6299 52.81C35.9199 55.27 34.1699 57.5 31.7099 57.79C31.5299 57.81 31.3599 57.82 31.1799 57.82V57.83Z" fill="white"/>
<path d="M23.0699 0C16.5599 0 11.2899 5.27 11.2899 11.78C11.2899 18.29 16.5599 23.56 23.0699 23.56C29.5799 23.56 34.8499 18.29 34.8499 11.78C34.8499 5.27 29.5799 0 23.0699 0ZM23.0699 21.75C17.5699 21.75 13.0999 17.28 13.0999 11.78C13.0999 11.35 13.1299 10.93 13.1799 10.51C13.5599 10.55 13.9299 10.57 14.3099 10.57C18.1499 10.57 21.3099 8.55 21.7699 5.94C22.3899 8.55 26.7399 10.57 31.9999 10.57C32.3299 10.57 32.6499 10.57 32.9699 10.55C33.0199 10.96 33.0499 11.37 33.0499 11.79C33.0499 17.29 28.5799 21.76 23.0799 21.76L23.0699 21.75Z" fill="white"/>
<path d="M18.72 14.55C18.32 14.55 18 14.23 18 13.83V13.27C18 12.87 18.32 12.55 18.72 12.55C19.12 12.55 19.44 12.87 19.44 13.27V13.83C19.44 14.23 19.12 14.55 18.72 14.55Z" fill="white"/>
<path d="M27.42 14.55C27.02 14.55 26.7 14.23 26.7 13.83V13.27C26.7 12.87 27.02 12.55 27.42 12.55C27.82 12.55 28.1399 12.87 28.1399 13.27V13.83C28.1399 14.23 27.82 14.55 27.42 14.55Z" fill="white"/>
<path d="M23.07 19.77C21.32 19.77 19.74 18.73 19.06 17.11C18.91 16.74 19.09 16.32 19.46 16.17C19.82 16.02 20.24 16.19 20.39 16.55C21.02 18.03 22.73 18.72 24.21 18.09C24.91 17.8 25.46 17.24 25.75 16.55C25.9 16.18 26.32 16 26.69 16.15C27.06 16.3 27.24 16.72 27.09 17.09C27.09 17.09 27.09 17.1 27.09 17.11C26.41 18.72 24.83 19.77 23.08 19.77H23.07Z" fill="white"/>
<path d="M12.72 21.12L9.49997 34.1L9.17997 34.29C6.91997 35.59 4.03997 34.81 2.74997 32.55C1.49997 30.37 2.17997 27.6 4.28997 26.24L12.72 21.12Z" fill="white"/>
<path d="M43.4299 32.71C42.0799 34.93 39.1799 35.64 36.9599 34.3L36.6399 34.11L33.4199 21.13L41.8499 26.25C44.0699 27.6 44.7799 30.5 43.4299 32.72V32.71Z" fill="white"/>
<path d="M45.42 6.72994C45.42 6.72994 44.33 11.7499 39.73 11.7499C39.73 11.7499 37.88 11.9299 36.29 11.3299C36.2 8.69994 35.33 6.15994 33.78 4.02994C35.22 3.34994 37.48 2.65994 39.57 3.61994C40.4 3.99994 41.07 4.63994 41.6 5.37994C42.09 6.06994 43.26 7.21994 45.42 6.73994V6.72994Z" fill="white"/>
<path d="M12.36 4.02997C10.81 6.15997 9.93997 8.69996 9.84997 11.33C8.26997 11.93 6.40997 11.75 6.40997 11.75C1.80997 11.75 0.719971 6.72996 0.719971 6.72996C2.87997 7.20996 4.04997 6.05996 4.53997 5.36996C5.06997 4.62996 5.73997 3.98996 6.56997 3.60996C8.65997 2.65996 10.92 3.34997 12.36 4.02997Z" fill="white"/>
<path d="M175.15 60.2199H172.22V59.1799H179.19V60.2199H176.27V69.1899H175.15V60.2199Z" fill="#4A5B72"/>
<path d="M178.66 65.23C178.66 62.8 180.26 61.12 182.6 61.12C184.94 61.12 186.55 62.86 186.39 65.43H179.74C179.78 67.27 180.9 68.37 182.68 68.37C183.94 68.37 184.75 67.9 185.25 67L186.25 67.22C185.57 68.59 184.4 69.32 182.67 69.32C180.24 69.32 178.66 67.69 178.66 65.21V65.23ZM185.35 64.53C185.25 63.01 184.23 62.04 182.61 62.04C180.99 62.04 179.97 62.97 179.78 64.53H185.35Z" fill="#4A5B72"/>
<path d="M188.01 58.71H189.1V69.19H188.01V58.71Z" fill="#4A5B72"/>
<path d="M190.89 59.4299C190.89 59.0399 191.18 58.7899 191.55 58.7899C191.92 58.7899 192.24 59.0399 192.24 59.4299C192.24 59.8199 191.92 60.0699 191.55 60.0699C191.18 60.0699 190.89 59.8199 190.89 59.4299ZM191.01 61.2799H192.07V69.1899H191.01V61.2799Z" fill="#4A5B72"/>
<path d="M194.47 65.97V62.17H193.3V61.29H194.47V59.81L195.58 59.58V61.29H198.05V62.17H195.58V65.88C195.58 67.76 196.04 68.4 197.38 68.4C197.53 68.4 197.7 68.39 198.02 68.33L198.17 69.21C197.88 69.27 197.51 69.31 197.26 69.31C195.31 69.31 194.48 68.41 194.48 65.98L194.47 65.97Z" fill="#4A5B72"/>
<path d="M198.54 65.23C198.54 62.45 200.31 61.12 202.26 61.12C203.6 61.12 204.79 61.78 205.29 63.1V61.27H206.38V69.16H205.29V67.39C204.81 68.69 203.62 69.35 202.28 69.35C200.32 69.35 198.55 68.02 198.55 65.22L198.54 65.23ZM205.31 65.23C205.31 63.29 204.16 62.09 202.45 62.09C200.74 62.09 199.62 63.28 199.62 65.23C199.62 67.18 200.75 68.4 202.48 68.4C204.21 68.4 205.31 67.18 205.31 65.23Z" fill="#4A5B72"/>
<path d="M211.98 65.23C211.98 62.84 213.58 61.12 215.84 61.12C217.68 61.12 218.87 61.98 219.45 63.64L218.5 63.87C218.03 62.68 217.16 62.09 215.87 62.09C214.22 62.09 213.06 63.38 213.06 65.23C213.06 67.08 214.22 68.37 215.87 68.37C217.1 68.37 218.04 67.73 218.48 66.59L219.43 66.83C218.91 68.42 217.62 69.35 215.84 69.35C213.59 69.35 211.98 67.64 211.98 65.24V65.23Z" fill="#4A5B72"/>
<path d="M220.51 65.23C220.51 62.38 222.45 61.12 224.42 61.12C226.39 61.12 228.36 62.38 228.36 65.23C228.36 68.08 226.42 69.36 224.45 69.36C222.48 69.36 220.51 68.1 220.51 65.23ZM227.28 65.23C227.28 63.29 226.13 62.09 224.42 62.09C222.71 62.09 221.59 63.28 221.59 65.23C221.59 67.18 222.72 68.4 224.45 68.4C226.18 68.4 227.28 67.18 227.28 65.23Z" fill="#4A5B72"/>
<path d="M229.97 61.2799H231.05V62.9699C231.41 61.8899 232.32 61.1499 233.76 61.1499C236 61.1499 237.05 62.4599 237.05 64.9699V69.1999H235.97V65.0399C235.97 63.0799 235.2 62.1399 233.5 62.1399C231.8 62.1399 231.05 63.2899 231.05 65.2799V69.2099H229.97V61.2999V61.2799Z" fill="#4A5B72"/>
<path d="M242.64 61.2799H243.72V62.9699C244.08 61.8899 244.99 61.1499 246.43 61.1499C248.67 61.1499 249.72 62.4599 249.72 64.9699V69.1999H248.64V65.0399C248.64 63.0799 247.87 62.1399 246.17 62.1399C244.47 62.1399 243.72 63.2899 243.72 65.2799V69.2099H242.64V61.2999V61.2799Z" fill="#4A5B72"/>
<path d="M251.13 65.23C251.13 62.38 253.07 61.12 255.04 61.12C257.01 61.12 258.98 62.38 258.98 65.23C258.98 68.08 257.04 69.36 255.07 69.36C253.1 69.36 251.13 68.1 251.13 65.23ZM257.9 65.23C257.9 63.29 256.75 62.09 255.04 62.09C253.33 62.09 252.21 63.28 252.21 65.23C252.21 67.18 253.34 68.4 255.07 68.4C256.8 68.4 257.9 67.18 257.9 65.23Z" fill="#4A5B72"/>
<path d="M259.83 67.3499L260.81 67.0299C261.29 67.8699 262.26 68.3599 263.52 68.3599C264.96 68.3599 265.79 67.8299 265.79 66.9499C265.79 64.8799 260.26 66.4799 260.26 63.3299C260.26 62.0299 261.6 61.1499 263.43 61.1499C264.83 61.1499 266.14 61.8299 266.68 62.8199L265.74 63.1699C265.3 62.5099 264.44 62.0899 263.45 62.0899C262.15 62.0899 261.35 62.5699 261.35 63.3599C261.35 65.4299 266.89 63.7999 266.89 66.9399C266.89 68.3899 265.58 69.3299 263.53 69.3299C261.82 69.3299 260.41 68.5599 259.84 67.3499H259.83Z" fill="#4A5B72"/>
<path d="M267.95 65.23C267.95 62.38 269.89 61.12 271.86 61.12C273.83 61.12 275.8 62.38 275.8 65.23C275.8 68.08 273.86 69.36 271.89 69.36C269.92 69.36 267.95 68.1 267.95 65.23ZM274.72 65.23C274.72 63.29 273.57 62.09 271.86 62.09C270.15 62.09 269.03 63.28 269.03 65.23C269.03 67.18 270.16 68.4 271.89 68.4C273.62 68.4 274.72 67.18 274.72 65.23Z" fill="#4A5B72"/>
<path d="M277.39 65.97V62.17H276.22V61.29H277.39V59.81L278.5 59.58V61.29H280.97V62.17H278.5V65.88C278.5 67.76 278.96 68.4 280.3 68.4C280.45 68.4 280.62 68.39 280.94 68.33L281.09 69.21C280.8 69.27 280.43 69.31 280.18 69.31C278.23 69.31 277.4 68.41 277.4 65.98L277.39 65.97Z" fill="#4A5B72"/>
<path d="M282.25 61.28H283.33V62.72C283.66 61.78 284.5 60.99 286.21 61.25L286.07 62.31C284.15 61.95 283.33 63.08 283.33 65.09V69.18H282.25V61.27V61.28Z" fill="#4A5B72"/>
<path d="M286.34 65.23C286.34 62.38 288.28 61.12 290.25 61.12C292.22 61.12 294.19 62.38 294.19 65.23C294.19 68.08 292.25 69.36 290.28 69.36C288.31 69.36 286.34 68.1 286.34 65.23ZM293.11 65.23C293.11 63.29 291.96 62.09 290.25 62.09C288.54 62.09 287.42 63.28 287.42 65.23C287.42 67.18 288.55 68.4 290.28 68.4C292.01 68.4 293.11 67.18 293.11 65.23Z" fill="#4A5B72"/>
<path d="M295.04 67.3499L296.02 67.0299C296.5 67.8699 297.47 68.3599 298.73 68.3599C300.17 68.3599 301 67.8299 301 66.9499C301 64.8799 295.47 66.4799 295.47 63.3299C295.47 62.0299 296.81 61.1499 298.64 61.1499C300.04 61.1499 301.35 61.8299 301.89 62.8199L300.95 63.1699C300.51 62.5099 299.65 62.0899 298.66 62.0899C297.36 62.0899 296.56 62.5699 296.56 63.3599C296.56 65.4299 302.1 63.7999 302.1 66.9399C302.1 68.3899 300.79 69.3299 298.74 69.3299C297.03 69.3299 295.62 68.5599 295.05 67.3499H295.04Z" fill="#4A5B72"/>
</g>
<defs>
<clipPath id="clip0_91_65">
<rect width="302.09" height="71.29" fill="white"/>
</clipPath>
</defs>
</svg>
